<?xml version="1.0" encoding="utf-8"?>
<!-- Generator: Adobe Illustrator 25.0.0, SVG Export Plug-In . SVG Version: 6.00 Build 0)  -->
<svg version="1.1" id="Слой_1" xmlns="http://www.w3.org/2000/svg" xmlns:xlink="http://www.w3.org/1999/xlink" x="0px" y="0px"
	 viewBox="0 0 1080 1080" style="enable-background:new 0 0 1080 1080;" xml:space="preserve">
<style type="text/css">
	.st0{fill:#9E015D;}
	.st1{fill:#1A1A1A;}
	.st2{fill:none;stroke:#F8F8F8;stroke-width:18;stroke-miterlimit:10;}
</style>
<g>
	<g>
		<path class="st0" d="M541.3,1039.3c-6.4-8.4-12.5-16.5-18.6-24.7c-50.1-67-100.2-134.1-150.2-201.1c-43.1-57.7-86-115.6-129-173.3
			C186,563.1,128.6,486,71.1,408.9c-6.5-8.7-12.9-17.5-19.5-26.1c-6.4-8.2-8.1-17.2-8-27.2c0.3-55.1,0.1-110.2,0.2-165.3
			c0-47.9,0.2-95.9,0.3-143.8c0-1.5,0.2-3,0.3-5.9c166.6,220.9,332.3,440.7,498.5,661.1c166.6-220.8,332.7-440.9,498.8-661
			c0.5,0.2,1.1,0.5,1.6,0.7c0.1,1.4,0.3,2.9,0.3,4.3c0,102.9,0.1,205.7,0.1,308.6c0,7.1-2.7,13.4-7,19.1
			c-25,33.7-50.1,67.4-75.1,101.1c-29.6,39.9-59.3,79.7-89,119.5c-44.3,59.6-88.7,119.1-133,178.7c-34.4,46.3-68.7,92.6-103.1,138.9
			c-30.8,41.6-61.6,83.1-92.5,124.7C543.3,1037.2,542.5,1038,541.3,1039.3z"/>
		<path class="st1" d="M1043.3,453.8c0,195.4,0,390.7,0,586.6c-73.4,0-147.1,0-221.3,0c0-9.9,0-19.5,0-29.1
			c0.1-64.1,0.2-128.2,0.3-192.4c0-19.9,0.3-39.8,0-59.8c-0.1-7.8,2-14.6,6.8-21c25.3-33.8,50.4-67.6,75.6-101.4
			c44.6-59.6,89.2-119.1,133.9-178.7c1.2-1.6,2.5-3.1,3.7-4.6C1042.6,453.6,1043,453.7,1043.3,453.8z"/>
		<path class="st1" d="M44.1,458.4c1.7,2.1,2.7,3.2,3.6,4.4C96,527.9,144.4,593,192.8,658.1c18.7,25.1,37.2,50.3,56.1,75.3
			c7.2,9.5,10.8,19.4,10.8,31.2c-0.4,90.3-0.2,180.5-0.3,270.8c0,1.5,0,3.1,0,5.1c-71.9,0-143.6,0-215.4,0
			C44.1,846.9,44.1,653.3,44.1,458.4z"/>
	</g>
	<path class="st2" d="M961.4,474.6c25.1-33.7,50.1-67.4,75.1-101.1c4.3-5.7,7-12,7-19.1c0-102.9-0.1-205.7-0.1-308.6
		c0-1.4-0.2-2.9-0.3-4.3c-0.5-0.2-1.1-0.5-1.6-0.7c-166.1,220.1-332.2,440.2-498.8,661C376.6,481.2,210.9,261.5,44.3,40.6
		C44.2,43.5,44,45,44,46.5c-0.1,47.9-0.2,95.9-0.3,143.8c0,55.1,0.1,110.2-0.2,165.3c-0.1,10,1.6,19,8,27.2
		c6.7,8.6,13.1,17.4,19.5,26.1C128.6,486,186,563.1,243.4,640.2c43,57.8,86,115.6,129,173.3c50,67.1,100.1,134.1,150.2,201.1
		c6.1,8.2,12.3,16.3,18.6,24.7c1.1-1.3,1.9-2.1,2.6-2.9c30.8-41.5,61.7-83.1,92.5-124.7c34.4-46.3,68.7-92.6,103.1-138.9
		c44.3-59.6,88.7-119.2,133-178.7C902.1,554.2,931.8,514.4,961.4,474.6z"/>
	<path class="st2" d="M1038.6,458.1c-44.6,59.6-89.3,119.1-133.9,178.7c-25.3,33.8-50.4,67.6-75.6,101.4c-4.8,6.4-6.9,13.2-6.8,21
		c0.3,19.9,0,39.8,0,59.8c-0.1,64.1-0.2,128.2-0.3,192.4c0,9.6,0,19.2,0,29.1c74.2,0,147.9,0,221.3,0c0-195.9,0-391.3,0-586.6
		c-0.3-0.1-0.7-0.2-1-0.3C1041.1,455,1039.8,456.5,1038.6,458.1z"/>
	<path class="st2" d="M248.9,733.4c-18.9-25-37.4-50.2-56.1-75.3C144.4,593,96,527.9,47.6,462.8c-0.9-1.2-1.9-2.3-3.6-4.4
		c0,194.9,0,388.5,0,582.2c71.8,0,143.5,0,215.4,0c0-2,0-3.6,0-5.1c0-90.3-0.1-180.5,0.3-270.8C259.8,752.8,256.1,742.9,248.9,733.4
		z"/>
</g>
</svg>
